<svg width="22" height="22" viewBox="0 0 22 22" fill="none" xmlns="http://www.w3.org/2000/svg">
<g clip-path="url(#clip0_45_547)">
<path d="M22 11C22 13.9174 20.8411 16.7153 18.7782 18.7782C16.7153 20.8411 13.9174 22 11 22C8.08262 22 5.28473 20.8411 3.22183 18.7782C1.15893 16.7153 1.299e-06 13.9174 1.42652e-06 11C1.55405e-06 8.08262 1.15893 5.28473 3.22183 3.22183C5.28473 1.15892 8.08262 -6.08348e-07 11 -4.80825e-07C13.9174 -3.53302e-07 16.7153 1.15893 18.7782 3.22183C20.8411 5.28473 22 8.08262 22 11V11ZM11.6875 6.1875C11.6875 6.00516 11.6151 5.8303 11.4861 5.70136C11.3572 5.57243 11.1823 5.5 11 5.5C10.8177 5.5 10.6428 5.57243 10.5139 5.70136C10.3849 5.8303 10.3125 6.00516 10.3125 6.1875L10.3125 14.1529L7.36175 11.2008C7.29783 11.1368 7.22195 11.0861 7.13843 11.0515C7.05491 11.0169 6.9654 10.9991 6.875 10.9991C6.7846 10.9991 6.69509 11.0169 6.61157 11.0515C6.52806 11.0861 6.45217 11.1368 6.38825 11.2008C6.32433 11.2647 6.27362 11.3406 6.23903 11.4241C6.20444 11.5076 6.18663 11.5971 6.18663 11.6875C6.18663 11.7779 6.20444 11.8674 6.23903 11.9509C6.27362 12.0344 6.32433 12.1103 6.38825 12.1743L10.5133 16.2993C10.5771 16.3633 10.653 16.4141 10.7365 16.4487C10.82 16.4834 10.9096 16.5012 11 16.5012C11.0904 16.5012 11.18 16.4834 11.2635 16.4487C11.347 16.4141 11.4229 16.3633 11.4867 16.2993L15.6118 12.1743C15.6757 12.1103 15.7264 12.0344 15.761 11.9509C15.7956 11.8674 15.8134 11.7779 15.8134 11.6875C15.8134 11.5971 15.7956 11.5076 15.761 11.4241C15.7264 11.3406 15.6757 11.2647 15.6118 11.2008C15.5478 11.1368 15.4719 11.0861 15.3884 11.0515C15.3049 11.0169 15.2154 10.9991 15.125 10.9991C15.0346 10.9991 14.9451 11.0169 14.8616 11.0515C14.7781 11.0861 14.7022 11.1368 14.6382 11.2008L11.6875 14.1529L11.6875 6.1875Z" fill="#1C1C1C"/>
</g>
<defs>
<clipPath id="clip0_45_547">
<rect width="22" height="22" fill="white" transform="translate(22) rotate(90)"/>
</clipPath>
</defs>
</svg>
