<svg width="22" height="22" viewBox="0 0 22 22" fill="none" xmlns="http://www.w3.org/2000/svg">
<g clip-path="url(#clip0_45_550)">
<path d="M22 11C22 8.08262 20.8411 5.28473 18.7782 3.22182C16.7153 1.15892 13.9174 -9.63843e-08 11 -1.31174e-07C8.08262 -1.65963e-07 5.28473 1.15892 3.22182 3.22182C1.15892 5.28472 1.65963e-07 8.08262 1.31174e-07 11C9.63843e-08 13.9174 1.15892 16.7153 3.22182 18.7782C5.28473 20.8411 8.08262 22 11 22C13.9174 22 16.7153 20.8411 18.7782 18.7782C20.8411 16.7153 22 13.9174 22 11V11ZM11.6875 15.8125C11.6875 15.9948 11.6151 16.1697 11.4861 16.2986C11.3572 16.4276 11.1823 16.5 11 16.5C10.8177 16.5 10.6428 16.4276 10.5139 16.2986C10.3849 16.1697 10.3125 15.9948 10.3125 15.8125L10.3125 7.84712L7.36175 10.7992C7.29783 10.8632 7.22194 10.9139 7.13843 10.9485C7.05491 10.9831 6.9654 11.0009 6.875 11.0009C6.7846 11.0009 6.69509 10.9831 6.61157 10.9485C6.52806 10.9139 6.45217 10.8632 6.38825 10.7992C6.32433 10.7353 6.27362 10.6594 6.23903 10.5759C6.20444 10.4924 6.18663 10.4029 6.18663 10.3125C6.18663 10.2221 6.20444 10.1326 6.23903 10.0491C6.27362 9.96556 6.32433 9.88967 6.38825 9.82575L10.5133 5.70075C10.5771 5.63672 10.653 5.58593 10.7365 5.55127C10.82 5.51661 10.9096 5.49877 11 5.49877C11.0904 5.49877 11.18 5.51661 11.2635 5.55127C11.347 5.58593 11.4229 5.63672 11.4867 5.70075L15.6118 9.82575C15.6757 9.88967 15.7264 9.96556 15.761 10.0491C15.7956 10.1326 15.8134 10.2221 15.8134 10.3125C15.8134 10.4029 15.7956 10.4924 15.761 10.5759C15.7264 10.6594 15.6757 10.7353 15.6118 10.7992C15.5478 10.8632 15.4719 10.9139 15.3884 10.9485C15.3049 10.9831 15.2154 11.0009 15.125 11.0009C15.0346 11.0009 14.9451 10.9831 14.8616 10.9485C14.7781 10.9139 14.7022 10.8632 14.6383 10.7992L11.6875 7.84712L11.6875 15.8125Z" fill="#1C1C1C"/>
</g>
<defs>
<clipPath id="clip0_45_550">
<rect width="22" height="22" fill="white" transform="matrix(1.19249e-08 -1 -1 -1.19249e-08 22 22)"/>
</clipPath>
</defs>
</svg>
