<svg width="12" height="14" viewBox="0 0 12 14" fill="none" xmlns="http://www.w3.org/2000/svg">
<path id="bag" d="M9.42857 4.375V3.5C9.42857 1.57008 7.89051 0 6 0C4.10946 0 2.57143 1.57008 2.57143 3.5V4.375H0V11.8125C0 13.0206 0.959384 14 2.14286 14H9.85714C11.0406 14 12 13.0206 12 11.8125V4.375H9.42857ZM4.28571 3.5C4.28571 2.53504 5.05473 1.75 6 1.75C6.94527 1.75 7.71429 2.53504 7.71429 3.5V4.375H4.28571V3.5ZM8.57143 6.78125C8.21638 6.78125 7.92857 6.48744 7.92857 6.125C7.92857 5.76256 8.21638 5.46875 8.57143 5.46875C8.92647 5.46875 9.21429 5.76256 9.21429 6.125C9.21429 6.48744 8.92647 6.78125 8.57143 6.78125ZM3.42857 6.78125C3.07353 6.78125 2.78571 6.48744 2.78571 6.125C2.78571 5.76256 3.07353 5.46875 3.42857 5.46875C3.78362 5.46875 4.07143 5.76256 4.07143 6.125C4.07143 6.48744 3.78362 6.78125 3.42857 6.78125Z" fill="#27274D"/>
</svg>
