<svg width="17" height="17" viewBox="0 0 17 17" fill="none" xmlns="http://www.w3.org/2000/svg">
<path d="M16.6882 7.74695L9.25305 0.311777C8.83734 -0.103926 8.16299 -0.103926 7.74695 0.311777L0.311777 7.74695C-0.103926 8.16299 -0.103926 8.83701 0.311777 9.25305L7.74695 16.6882C8.16266 17.1043 8.83701 17.1043 9.25305 16.6882L16.6882 9.25305C17.1039 8.83701 17.1039 8.16299 16.6882 7.74695ZM13.3354 8.16398L10.5393 10.7449C10.3693 10.9019 10.0934 10.7814 10.0934 10.5496V8.76562H6.90592V10.8906C6.90592 11.0374 6.78705 11.1562 6.64029 11.1562H5.57779C5.43104 11.1562 5.31217 11.0374 5.31217 10.8906V8.23438C5.31217 7.64768 5.78797 7.17188 6.37467 7.17188H10.0934V5.38787C10.0934 5.15645 10.369 5.03559 10.5393 5.19264L13.3354 7.77352C13.4493 7.87877 13.4493 8.05873 13.3354 8.16398Z" fill="#FEFEFE"/>
</svg>
