<svg width="18" height="15" viewBox="0 0 18 15" fill="none" xmlns="http://www.w3.org/2000/svg">
<path d="M9 0C4.02891 0 0 3.11719 0 6.96429C0 8.625 0.752344 10.1451 2.00391 11.3404C1.56445 13.0279 0.0949219 14.5312 0.0773438 14.548C0 14.625 -0.0210937 14.7388 0.0246094 14.8393C0.0703125 14.9397 0.16875 15 0.28125 15C2.61211 15 4.35938 13.9353 5.22422 13.279C6.37383 13.6908 7.65 13.9286 9 13.9286C13.9711 13.9286 18 10.8114 18 6.96429C18 3.11719 13.9711 0 9 0ZM4.5 8.03571C3.87773 8.03571 3.375 7.55692 3.375 6.96429C3.375 6.37165 3.87773 5.89286 4.5 5.89286C5.12227 5.89286 5.625 6.37165 5.625 6.96429C5.625 7.55692 5.12227 8.03571 4.5 8.03571ZM9 8.03571C8.37773 8.03571 7.875 7.55692 7.875 6.96429C7.875 6.37165 8.37773 5.89286 9 5.89286C9.62227 5.89286 10.125 6.37165 10.125 6.96429C10.125 7.55692 9.62227 8.03571 9 8.03571ZM13.5 8.03571C12.8777 8.03571 12.375 7.55692 12.375 6.96429C12.375 6.37165 12.8777 5.89286 13.5 5.89286C14.1223 5.89286 14.625 6.37165 14.625 6.96429C14.625 7.55692 14.1223 8.03571 13.5 8.03571Z" fill="black"/>
</svg>
