<svg width="15" height="17" viewBox="0 0 15 17" fill="none" xmlns="http://www.w3.org/2000/svg">
<path d="M0 15.4062C0 16.2861 0.719866 17 1.60714 17H13.3929C14.2801 17 15 16.2861 15 15.4062V6.375H0V15.4062ZM10.7143 8.89844C10.7143 8.6793 10.8951 8.5 11.1161 8.5H12.4554C12.6763 8.5 12.8571 8.6793 12.8571 8.89844V10.2266C12.8571 10.4457 12.6763 10.625 12.4554 10.625H11.1161C10.8951 10.625 10.7143 10.4457 10.7143 10.2266V8.89844ZM10.7143 13.1484C10.7143 12.9293 10.8951 12.75 11.1161 12.75H12.4554C12.6763 12.75 12.8571 12.9293 12.8571 13.1484V14.4766C12.8571 14.6957 12.6763 14.875 12.4554 14.875H11.1161C10.8951 14.875 10.7143 14.6957 10.7143 14.4766V13.1484ZM6.42857 8.89844C6.42857 8.6793 6.60937 8.5 6.83036 8.5H8.16964C8.39062 8.5 8.57143 8.6793 8.57143 8.89844V10.2266C8.57143 10.4457 8.39062 10.625 8.16964 10.625H6.83036C6.60937 10.625 6.42857 10.4457 6.42857 10.2266V8.89844ZM6.42857 13.1484C6.42857 12.9293 6.60937 12.75 6.83036 12.75H8.16964C8.39062 12.75 8.57143 12.9293 8.57143 13.1484V14.4766C8.57143 14.6957 8.39062 14.875 8.16964 14.875H6.83036C6.60937 14.875 6.42857 14.6957 6.42857 14.4766V13.1484ZM2.14286 8.89844C2.14286 8.6793 2.32366 8.5 2.54464 8.5H3.88393C4.10491 8.5 4.28571 8.6793 4.28571 8.89844V10.2266C4.28571 10.4457 4.10491 10.625 3.88393 10.625H2.54464C2.32366 10.625 2.14286 10.4457 2.14286 10.2266V8.89844ZM2.14286 13.1484C2.14286 12.9293 2.32366 12.75 2.54464 12.75H3.88393C4.10491 12.75 4.28571 12.9293 4.28571 13.1484V14.4766C4.28571 14.6957 4.10491 14.875 3.88393 14.875H2.54464C2.32366 14.875 2.14286 14.6957 2.14286 14.4766V13.1484ZM13.3929 2.125H11.7857V0.53125C11.7857 0.239062 11.5446 0 11.25 0H10.1786C9.88393 0 9.64286 0.239062 9.64286 0.53125V2.125H5.35714V0.53125C5.35714 0.239062 5.11607 0 4.82143 0H3.75C3.45536 0 3.21429 0.239062 3.21429 0.53125V2.125H1.60714C0.719866 2.125 0 2.83887 0 3.71875V5.3125H15V3.71875C15 2.83887 14.2801 2.125 13.3929 2.125Z" fill="black"/>
</svg>
