<svg width="11" height="12" viewBox="0 0 11 12" fill="none" xmlns="http://www.w3.org/2000/svg">
<path d="M10.6071 0.750004H7.66071L7.42991 0.311723C7.38102 0.218023 7.30571 0.139205 7.21244 0.084135C7.11918 0.0290653 7.01167 -7.09679e-05 6.90201 4.10923e-06H4.09554C3.98612 -0.000397388 3.8788 0.0286302 3.78587 0.0837612C3.69294 0.138892 3.61815 0.217897 3.57009 0.311723L3.33929 0.750004H0.392857C0.288665 0.750004 0.18874 0.789513 0.115065 0.859839C0.0413902 0.930165 0 1.02555 0 1.125L0 1.875C0 1.97446 0.0413902 2.06984 0.115065 2.14017C0.18874 2.21049 0.288665 2.25 0.392857 2.25H10.6071C10.7113 2.25 10.8113 2.21049 10.8849 2.14017C10.9586 2.06984 11 1.97446 11 1.875V1.125C11 1.02555 10.9586 0.930165 10.8849 0.859839C10.8113 0.789513 10.7113 0.750004 10.6071 0.750004V0.750004ZM1.30625 10.9453C1.32499 11.2309 1.45705 11.499 1.67555 11.6949C1.89405 11.8909 2.18257 12 2.48237 12H8.51763C8.81743 12 9.10595 11.8909 9.32445 11.6949C9.54295 11.499 9.67501 11.2309 9.69375 10.9453L10.2143 3H0.785714L1.30625 10.9453Z" fill="white" fill-opacity="0.65"/>
</svg>
