<svg width="30" height="30" viewBox="0 0 30 30" fill="none" xmlns="http://www.w3.org/2000/svg">
<path d="M22.8749 21.6125C22.9908 21.4969 23.0827 21.3595 23.1455 21.2083C23.2082 21.0571 23.2405 20.895 23.2405 20.7312C23.2405 20.5675 23.2082 20.4054 23.1455 20.2542C23.0827 20.103 22.9908 19.9656 22.8749 19.85L18.0249 15L22.8749 10.15C22.9907 10.0343 23.0825 9.89688 23.1451 9.74567C23.2077 9.59447 23.2399 9.43241 23.2399 9.26875C23.2399 9.10508 23.2077 8.94302 23.1451 8.79182C23.0825 8.64061 22.9907 8.50322 22.8749 8.3875C22.7592 8.27177 22.6218 8.17997 22.4706 8.11734C22.3194 8.05471 22.1573 8.02247 21.9937 8.02247C21.83 8.02247 21.6679 8.05471 21.5167 8.11734C21.3655 8.17997 21.2281 8.27177 21.1124 8.3875L15.3749 14.125C15.259 14.2406 15.1671 14.378 15.1044 14.5292C15.0417 14.6804 15.0094 14.8425 15.0094 15.0062C15.0094 15.17 15.0417 15.3321 15.1044 15.4833C15.1671 15.6345 15.259 15.7719 15.3749 15.8875L21.0999 21.6125C21.5874 22.1 22.3874 22.1 22.8749 21.6125Z" fill="#1C1C1C"/>
<path d="M14.6376 21.6125C14.7535 21.4969 14.8454 21.3595 14.9082 21.2083C14.9709 21.0571 15.0032 20.895 15.0032 20.7313C15.0032 20.5675 14.9709 20.4054 14.9082 20.2542C14.8454 20.103 14.7535 19.9656 14.6376 19.85L9.78762 15L14.6376 10.15C14.8713 9.91628 15.0026 9.59929 15.0026 9.26875C15.0026 8.93822 14.8713 8.62122 14.6376 8.3875C14.4039 8.15378 14.0869 8.02248 13.7564 8.02248C13.4258 8.02248 13.1088 8.15378 12.8751 8.3875L7.13762 14.125C7.02174 14.2406 6.9298 14.378 6.86708 14.5292C6.80435 14.6804 6.77206 14.8425 6.77206 15.0063C6.77206 15.17 6.80435 15.3321 6.86708 15.4833C6.9298 15.6345 7.02174 15.7719 7.13762 15.8875L12.8751 21.625C13.3501 22.1 14.1501 22.1 14.6376 21.6125Z" fill="#1C1C1C"/>
</svg>
