<svg width="30" height="30" viewBox="0 0 30 30" fill="none" xmlns="http://www.w3.org/2000/svg">
<path d="M7.12483 8.38751C7.00895 8.50315 6.91702 8.64051 6.85429 8.79173C6.79156 8.94294 6.75928 9.10505 6.75928 9.26876C6.75928 9.43247 6.79156 9.59457 6.85429 9.74579C6.91702 9.897 7.00895 10.0344 7.12483 10.15L11.9748 15L7.12483 19.85C7.0091 19.9657 6.9173 20.1031 6.85467 20.2543C6.79204 20.4055 6.75981 20.5676 6.75981 20.7313C6.75981 20.8949 6.79204 21.057 6.85467 21.2082C6.9173 21.3594 7.0091 21.4968 7.12483 21.6125C7.24056 21.7282 7.37795 21.82 7.52915 21.8827C7.68036 21.9453 7.84242 21.9775 8.00608 21.9775C8.16975 21.9775 8.33181 21.9453 8.48301 21.8827C8.63422 21.82 8.77161 21.7282 8.88733 21.6125L14.6248 15.875C14.7407 15.7594 14.8326 15.622 14.8954 15.4708C14.9581 15.3196 14.9904 15.1575 14.9904 14.9938C14.9904 14.83 14.9581 14.6679 14.8954 14.5167C14.8326 14.3655 14.7407 14.2281 14.6248 14.1125L8.89983 8.38751C8.41233 7.90001 7.61233 7.90001 7.12483 8.38751Z" fill="#1C1C1C"/>
<path d="M15.3626 8.3875C15.2467 8.50314 15.1548 8.6405 15.0921 8.79172C15.0294 8.94293 14.9971 9.10504 14.9971 9.26875C14.9971 9.43246 15.0294 9.59456 15.0921 9.74578C15.1548 9.89699 15.2467 10.0344 15.3626 10.15L20.2126 15L15.3626 19.85C15.1289 20.0837 14.9976 20.4007 14.9976 20.7312C14.9976 21.0618 15.1289 21.3788 15.3626 21.6125C15.5963 21.8462 15.9133 21.9775 16.2439 21.9775C16.5744 21.9775 16.8914 21.8462 17.1251 21.6125L22.8626 15.875C22.9785 15.7594 23.0704 15.622 23.1332 15.4708C23.1959 15.3196 23.2282 15.1575 23.2282 14.9937C23.2282 14.83 23.1959 14.6679 23.1332 14.5167C23.0704 14.3655 22.9785 14.2281 22.8626 14.1125L17.1251 8.375C16.6501 7.9 15.8501 7.9 15.3626 8.3875Z" fill="#1C1C1C"/>
</svg>
