<svg width="9" height="11" viewBox="0 0 9 11" fill="none" xmlns="http://www.w3.org/2000/svg">
<g id="link">
<path id="Vector" d="M9 1.96429V9.03571C9 9.56828 8.56828 10 8.03571 10H0.964286C0.431719 10 0 9.56828 0 9.03571V1.96429C0 1.43172 0.431719 1 0.964286 1H8.03571C8.56828 1 9 1.43172 9 1.96429ZM7.23214 2.28571H4.98273C4.55456 2.28571 4.33826 2.80524 4.64179 3.10879L5.28433 3.75139L1.35633 7.67939C1.26219 7.77352 1.26219 7.92616 1.35633 8.02032L1.97968 8.64367C2.07384 8.73781 2.22648 8.73781 2.32061 8.64367L6.24859 4.71569L6.89121 5.35837C7.19313 5.66025 7.71429 5.44827 7.71429 5.01744V2.76786C7.71429 2.50157 7.49843 2.28571 7.23214 2.28571Z" fill="#E32329"/>
</g>
</svg>
