<svg width="18" height="18" viewBox="0 0 18 18" fill="none" xmlns="http://www.w3.org/2000/svg">
<path d="M4.95 8.1C6 10.2 7.8 11.925 9.9 13.05L11.55 11.4C11.775 11.175 12.075 11.1 12.3 11.25C13.125 11.55 14.025 11.7 15 11.7C15.45 11.7 15.75 12 15.75 12.45V15C15.75 15.45 15.45 15.75 15 15.75C7.95 15.75 2.25 10.05 2.25 3C2.25 2.55 2.625 2.25 3 2.25H5.625C6.075 2.25 6.375 2.55 6.375 3C6.375 3.9 6.525 4.8 6.825 5.7C6.9 5.925 6.825 6.225 6.675 6.45L4.95 8.1ZM10.5 2.25C10.05 2.25 9.75 2.55 9.75 3C9.75 3.45 10.05 3.75 10.5 3.75C10.95 3.75 11.25 3.45 11.25 3C11.25 2.55 10.95 2.25 10.5 2.25ZM12.75 2.25C12.3 2.25 12 2.55 12 3C12 3.45 12.3 3.75 12.75 3.75C13.2 3.75 13.5 3.45 13.5 3C13.5 2.55 13.2 2.25 12.75 2.25ZM15 2.25C14.55 2.25 14.25 2.55 14.25 3C14.25 3.45 14.55 3.75 15 3.75C15.45 3.75 15.75 3.45 15.75 3C15.75 2.55 15.45 2.25 15 2.25ZM10.5 4.5C10.05 4.5 9.75 4.8 9.75 5.25C9.75 5.7 10.05 6 10.5 6C10.95 6 11.25 5.7 11.25 5.25C11.25 4.8 10.95 4.5 10.5 4.5ZM12.75 4.5C12.3 4.5 12 4.8 12 5.25C12 5.7 12.3 6 12.75 6C13.2 6 13.5 5.7 13.5 5.25C13.5 4.8 13.2 4.5 12.75 4.5ZM15 4.5C14.55 4.5 14.25 4.8 14.25 5.25C14.25 5.7 14.55 6 15 6C15.45 6 15.75 5.7 15.75 5.25C15.75 4.8 15.45 4.5 15 4.5ZM10.5 6.75C10.05 6.75 9.75 7.05 9.75 7.5C9.75 7.95 10.05 8.25 10.5 8.25C10.95 8.25 11.25 7.95 11.25 7.5C11.25 7.05 10.95 6.75 10.5 6.75ZM12.75 6.75C12.3 6.75 12 7.05 12 7.5C12 7.95 12.3 8.25 12.75 8.25C13.2 8.25 13.5 7.95 13.5 7.5C13.5 7.05 13.2 6.75 12.75 6.75ZM15 6.75C14.55 6.75 14.25 7.05 14.25 7.5C14.25 7.95 14.55 8.25 15 8.25C15.45 8.25 15.75 7.95 15.75 7.5C15.75 7.05 15.45 6.75 15 6.75Z" fill="#27274D"/>
</svg>
