<?xml version="1.0" encoding="utf-8"?>
<!-- Generator: Adobe Illustrator 24.3.0, SVG Export Plug-In . SVG Version: 6.00 Build 0)  -->
<svg version="1.1" id="Layer_1" xmlns="http://www.w3.org/2000/svg" xmlns:xlink="http://www.w3.org/1999/xlink" x="0px" y="0px"
	 viewBox="0 0 841.9 595.3" style="enable-background:new 0 0 841.9 595.3;" xml:space="preserve">
<style type="text/css">
	.st0{fill:none;}
	.st1{fill:#31789B;}
	.st2{fill:#91C645;}
	.st3{fill:#FFC90D;}
	.st4{fill:#E52027;}
	.st5{fill:#7A1E1D;}
	.st6{fill:#2F98D4;}
	.st7{fill:#734D6E;}
	.st8{fill:#1CBEE3;}
	.st9{fill:#2AB24B;}
	.st10{fill:#91BB70;}
	.st11{fill:#92CE95;}
	.st12{fill:#AA6480;}
	.st13{fill:#587EB5;}
	.st14{fill:#1E83B1;}
	.st15{fill:#3856A5;}
	.st16{fill:#927B37;}
	.st17{fill:#7B479C;}
	.st18{fill:#2C9161;}
	.st19{clip-path:url(#SVGID_2_);}
	.st20{fill:#1573A6;}
	.st21{fill:#14AA59;}
	.st22{fill:#231F20;}
	.st23{fill:url(#SVGID_4_);}
	.st24{fill-rule:evenodd;clip-rule:evenodd;fill:#E32329;}
</style>
<pattern  y="595.3" width="212.3" height="226" patternUnits="userSpaceOnUse" id="SVGID_3_" viewBox="298.2 -745 212.3 226" style="overflow:visible;">
	<g>
		<rect x="298.2" y="-745" class="st0" width="212.3" height="226"/>
		<g>
			<rect x="298.2" y="-745" class="st0" width="212.3" height="226"/>
			<rect x="300.2" y="-745" class="st1" width="2" height="226"/>
			<rect x="302.2" y="-745" class="st2" width="2" height="226"/>
			<rect x="304.2" y="-745" class="st3" width="2" height="226"/>
			<rect x="306.2" y="-745" class="st4" width="2" height="226"/>
			<rect x="308.2" y="-745" class="st5" width="2" height="226"/>
			<rect x="310.2" y="-745" class="st4" width="2" height="226"/>
			<rect x="312.2" y="-745" class="st6" width="2" height="226"/>
			<rect x="314.2" y="-745" class="st1" width="2" height="226"/>
			<rect x="316.2" y="-745" class="st7" width="2" height="226"/>
			<rect x="318.2" y="-745" class="st2" width="2" height="226"/>
			<rect x="320.2" y="-745" class="st3" width="2" height="226"/>
			<rect x="322.2" y="-745" class="st6" width="2" height="226"/>
			<rect x="324.2" y="-745" class="st8" width="2" height="226"/>
			<rect x="326.2" y="-745" class="st7" width="2" height="226"/>
			<rect x="328.2" y="-745" class="st1" width="2" height="226"/>
			<rect x="330.2" y="-745" class="st1" width="2" height="226"/>
			<rect x="332.2" y="-745" class="st9" width="2" height="226"/>
			<rect x="334.2" y="-745" class="st10" width="2" height="226"/>
			<rect x="336.2" y="-745" class="st6" width="2" height="226"/>
			<rect x="338.2" y="-745" class="st11" width="2" height="226"/>
			<rect x="340.2" y="-745" class="st12" width="2" height="226"/>
			<rect x="342.2" y="-745" class="st13" width="2" height="226"/>
			<rect x="344.3" y="-745" class="st6" width="2" height="226"/>
			<rect x="346.3" y="-745" class="st14" width="2" height="226"/>
			<rect x="348.3" y="-745" class="st15" width="2" height="226"/>
			<rect x="350.3" y="-745" class="st9" width="2" height="226"/>
			<rect x="352.3" y="-745" class="st16" width="2" height="226"/>
			<rect x="354.3" y="-745" class="st4" width="2" height="226"/>
			<rect x="356.3" y="-745" class="st15" width="2" height="226"/>
			<rect x="358.3" y="-745" class="st17" width="2" height="226"/>
			<rect x="360.3" y="-745" class="st18" width="2" height="226"/>
			<rect x="362.3" y="-745" class="st1" width="2" height="226"/>
			<rect x="364.3" y="-745" class="st2" width="2" height="226"/>
			<rect x="366.3" y="-745" class="st3" width="2" height="226"/>
			<rect x="368.3" y="-745" class="st4" width="2" height="226"/>
			<rect x="370.3" y="-745" class="st5" width="2" height="226"/>
			<rect x="372.3" y="-745" class="st4" width="2" height="226"/>
			<rect x="374.3" y="-745" class="st6" width="2" height="226"/>
			<rect x="376.3" y="-745" class="st1" width="2" height="226"/>
			<g>
				<g>
					<defs>
						<rect id="SVGID_1_" x="378.3" y="-745" width="2" height="226"/>
					</defs>
					<clipPath id="SVGID_2_">
						<use xlink:href="#SVGID_1_"  style="overflow:visible;"/>
					</clipPath>
					<g class="st19">
						<rect y="-1710.8" class="st0" width="1607.7" height="1710.8"/>
						<rect x="15.2" y="-1710.8" class="st1" width="15.2" height="1710.8"/>
						<rect x="30.3" y="-1710.8" class="st2" width="15.2" height="1710.8"/>
						<rect x="45.5" y="-1710.8" class="st3" width="15.2" height="1710.8"/>
						<rect x="60.7" y="-1710.8" class="st4" width="15.2" height="1710.8"/>
						<rect x="75.8" y="-1710.8" class="st5" width="15.2" height="1710.8"/>
						<rect x="91" y="-1710.8" class="st4" width="15.2" height="1710.8"/>
						<rect x="106.2" y="-1710.8" class="st6" width="15.2" height="1710.8"/>
						<rect x="121.3" y="-1710.8" class="st1" width="15.2" height="1710.8"/>
						<rect x="136.5" y="-1710.8" class="st7" width="15.2" height="1710.8"/>
						<rect x="151.7" y="-1710.8" class="st2" width="15.2" height="1710.8"/>
						<rect x="166.8" y="-1710.8" class="st3" width="15.2" height="1710.8"/>
						<rect x="182" y="-1710.8" class="st6" width="15.2" height="1710.8"/>
						<rect x="197.2" y="-1710.8" class="st8" width="15.2" height="1710.8"/>
						<rect x="212.3" y="-1710.8" class="st7" width="15.2" height="1710.8"/>
						<rect x="227.5" y="-1710.8" class="st1" width="15.2" height="1710.8"/>
						<rect x="242.7" y="-1710.8" class="st1" width="15.2" height="1710.8"/>
						<rect x="257.8" y="-1710.8" class="st9" width="15.2" height="1710.8"/>
						<rect x="273" y="-1710.8" class="st10" width="15.2" height="1710.8"/>
						<rect x="288.2" y="-1710.8" class="st6" width="15.2" height="1710.8"/>
						<rect x="303.3" y="-1710.8" class="st11" width="15.2" height="1710.8"/>
						<rect x="318.5" y="-1710.8" class="st12" width="15.2" height="1710.8"/>
						<rect x="333.7" y="-1710.8" class="st13" width="15.2" height="1710.8"/>
						<rect x="348.8" y="-1710.8" class="st6" width="15.2" height="1710.8"/>
						<rect x="364" y="-1710.8" class="st14" width="15.2" height="1710.8"/>
						<rect x="379.2" y="-1710.8" class="st15" width="15.2" height="1710.8"/>
						<rect x="394.3" y="-1710.8" class="st9" width="15.2" height="1710.8"/>
						<rect x="409.5" y="-1710.8" class="st16" width="15.2" height="1710.8"/>
						<rect x="424.7" y="-1710.8" class="st4" width="15.2" height="1710.8"/>
						<rect x="439.8" y="-1710.8" class="st15" width="15.2" height="1710.8"/>
						<rect x="455" y="-1710.8" class="st17" width="15.2" height="1710.8"/>
						<rect x="470.2" y="-1710.8" class="st18" width="15.2" height="1710.8"/>
						<rect x="485.3" y="-1710.8" class="st1" width="15.2" height="1710.8"/>
						<rect x="500.5" y="-1710.8" class="st2" width="15.2" height="1710.8"/>
						<rect x="515.7" y="-1710.8" class="st3" width="15.2" height="1710.8"/>
						<rect x="530.8" y="-1710.8" class="st4" width="15.2" height="1710.8"/>
						<rect x="546" y="-1710.8" class="st5" width="15.2" height="1710.8"/>
						<rect x="561.2" y="-1710.8" class="st4" width="15.2" height="1710.8"/>
						<rect x="576.3" y="-1710.8" class="st6" width="15.2" height="1710.8"/>
						<rect x="591.5" y="-1710.8" class="st1" width="15.2" height="1710.8"/>
						<rect x="606.7" y="-1710.8" class="st7" width="15.2" height="1710.8"/>
						<rect x="621.8" y="-1710.8" class="st2" width="15.2" height="1710.8"/>
						<rect x="637" y="-1710.8" class="st3" width="15.2" height="1710.8"/>
						<rect x="652.2" y="-1710.8" class="st14" width="15.2" height="1710.8"/>
						<rect x="667.3" y="-1710.8" class="st8" width="15.2" height="1710.8"/>
						<rect x="682.5" y="-1710.8" class="st7" width="15.2" height="1710.8"/>
						<rect x="697.7" y="-1710.8" class="st20" width="15.2" height="1710.8"/>
						<rect x="712.8" y="-1710.8" class="st1" width="15.2" height="1710.8"/>
						<rect y="-1710.8" class="st18" width="15.2" height="1710.8"/>
						<rect x="743.2" y="-1710.8" class="st10" width="15.2" height="1710.8"/>
						<rect x="758.3" y="-1710.8" class="st6" width="15.2" height="1710.8"/>
						<rect x="773.5" y="-1710.8" class="st11" width="15.2" height="1710.8"/>
						<rect x="788.7" y="-1710.8" class="st12" width="15.2" height="1710.8"/>
						<rect x="803.8" y="-1710.8" class="st5" width="15.2" height="1710.8"/>
						<rect x="819" y="-1710.8" class="st13" width="15.2" height="1710.8"/>
						<rect x="834.2" y="-1710.8" class="st6" width="15.2" height="1710.8"/>
						<rect x="849.3" y="-1710.8" class="st1" width="15.2" height="1710.8"/>
						<rect x="864.5" y="-1710.8" class="st15" width="15.2" height="1710.8"/>
						<rect x="879.7" y="-1710.8" class="st21" width="15.2" height="1710.8"/>
						<rect x="894.8" y="-1710.8" class="st16" width="15.2" height="1710.8"/>
						<rect x="910" y="-1710.8" class="st4" width="15.2" height="1710.8"/>
						<rect x="925.2" y="-1710.8" class="st15" width="15.2" height="1710.8"/>
						<rect x="940.3" y="-1710.8" class="st17" width="15.2" height="1710.8"/>
						<rect x="955.5" y="-1710.8" class="st18" width="15.2" height="1710.8"/>
						<rect x="970.7" y="-1710.8" class="st1" width="15.2" height="1710.8"/>
						<rect x="985.8" y="-1710.8" class="st9" width="15.2" height="1710.8"/>
						<rect x="1001" y="-1710.8" class="st3" width="15.2" height="1710.8"/>
						<rect x="1016.2" y="-1710.8" class="st4" width="15.2" height="1710.8"/>
						<rect x="1031.3" y="-1710.8" class="st5" width="15.2" height="1710.8"/>
						<rect x="1046.5" y="-1710.8" class="st4" width="15.2" height="1710.8"/>
						<rect x="1061.7" y="-1710.8" class="st6" width="15.2" height="1710.8"/>
						<rect x="1076.8" y="-1710.8" class="st1" width="15.2" height="1710.8"/>
						<rect x="1092" y="-1710.8" class="st7" width="15.2" height="1710.8"/>
						<rect x="1107.2" y="-1710.8" class="st2" width="15.2" height="1710.8"/>
						<rect x="1122.3" y="-1710.8" class="st3" width="15.2" height="1710.8"/>
						<rect x="1137.5" y="-1710.8" class="st14" width="15.2" height="1710.8"/>
						<rect x="1152.7" y="-1710.8" class="st8" width="15.2" height="1710.8"/>
						<rect x="1167.8" y="-1710.8" class="st7" width="15.2" height="1710.8"/>
						<rect x="1183" y="-1710.8" class="st20" width="15.2" height="1710.8"/>
						<rect x="1198.2" y="-1710.8" class="st1" width="15.2" height="1710.8"/>
						<rect x="1213.3" y="-1710.8" class="st21" width="15.2" height="1710.8"/>
						<rect x="1228.5" y="-1710.8" class="st10" width="15.2" height="1710.8"/>
						<rect x="1243.7" y="-1710.8" class="st6" width="15.2" height="1710.8"/>
						<rect x="1258.8" y="-1710.8" class="st11" width="15.2" height="1710.8"/>
						<rect x="1274" y="-1710.8" class="st12" width="15.2" height="1710.8"/>
						<rect x="1289.2" y="-1710.8" class="st13" width="15.2" height="1710.8"/>
						<rect x="1304.3" y="-1710.8" class="st6" width="15.2" height="1710.8"/>
						<rect x="1319.5" y="-1710.8" class="st1" width="15.2" height="1710.8"/>
						<rect x="1334.7" y="-1710.8" class="st15" width="15.2" height="1710.8"/>
						<rect x="1349.8" y="-1710.8" class="st21" width="15.2" height="1710.8"/>
						<rect x="1365" y="-1710.8" class="st16" width="15.2" height="1710.8"/>
						<rect x="1380.2" y="-1710.8" class="st4" width="15.2" height="1710.8"/>
						<rect x="1395.3" y="-1710.8" class="st15" width="15.2" height="1710.8"/>
						<rect x="1410.5" y="-1710.8" class="st17" width="15.2" height="1710.8"/>
						<rect x="1425.7" y="-1710.8" class="st18" width="15.2" height="1710.8"/>
						<rect x="1440.8" y="-1710.8" class="st1" width="15.2" height="1710.8"/>
						<rect x="1456" y="-1710.8" class="st2" width="15.2" height="1710.8"/>
						<rect x="1471.2" y="-1710.8" class="st3" width="15.2" height="1710.8"/>
						<rect x="1486.3" y="-1710.8" class="st4" width="15.2" height="1710.8"/>
						<rect x="1501.5" y="-1710.8" class="st5" width="15.2" height="1710.8"/>
						<rect x="1516.7" y="-1710.8" class="st4" width="15.2" height="1710.8"/>
						<rect x="1531.8" y="-1710.8" class="st6" width="15.2" height="1710.8"/>
						<rect x="1547" y="-1710.8" class="st1" width="15.2" height="1710.8"/>
						<rect x="1562.2" y="-1710.8" class="st7" width="15.2" height="1710.8"/>
						<rect x="1577.3" y="-1710.8" class="st2" width="15.2" height="1710.8"/>
						<rect x="1592.5" y="-1710.8" class="st3" width="15.2" height="1710.8"/>
						<rect x="728" y="-1710.8" class="st9" width="15.2" height="1710.8"/>
					</g>
				</g>
			</g>
			<rect x="380.3" y="-745" class="st2" width="2" height="226"/>
			<rect x="382.3" y="-745" class="st3" width="2" height="226"/>
			<rect x="384.3" y="-745" class="st14" width="2" height="226"/>
			<rect x="386.3" y="-745" class="st8" width="2" height="226"/>
			<rect x="388.3" y="-745" class="st7" width="2" height="226"/>
			<rect x="390.3" y="-745" class="st20" width="2" height="226"/>
			<rect x="392.3" y="-745" class="st1" width="2" height="226"/>
			<rect x="298.2" y="-745" class="st18" width="2" height="226"/>
			<rect x="396.3" y="-745" class="st10" width="2" height="226"/>
			<rect x="398.3" y="-745" class="st6" width="2" height="226"/>
			<rect x="400.3" y="-745" class="st11" width="2" height="226"/>
			<rect x="402.4" y="-745" class="st12" width="2" height="226"/>
			<rect x="404.4" y="-745" class="st5" width="2" height="226"/>
			<rect x="406.4" y="-745" class="st13" width="2" height="226"/>
			<rect x="408.4" y="-745" class="st6" width="2" height="226"/>
			<rect x="410.4" y="-745" class="st1" width="2" height="226"/>
			<rect x="412.4" y="-745" class="st15" width="2" height="226"/>
			<rect x="414.4" y="-745" class="st21" width="2" height="226"/>
			<rect x="416.4" y="-745" class="st16" width="2" height="226"/>
			<rect x="418.4" y="-745" class="st4" width="2" height="226"/>
			<rect x="420.4" y="-745" class="st15" width="2" height="226"/>
			<rect x="422.4" y="-745" class="st17" width="2" height="226"/>
			<rect x="424.4" y="-745" class="st18" width="2" height="226"/>
			<rect x="426.4" y="-745" class="st1" width="2" height="226"/>
			<rect x="428.4" y="-745" class="st9" width="2" height="226"/>
			<rect x="430.4" y="-745" class="st3" width="2" height="226"/>
			<rect x="432.4" y="-745" class="st4" width="2" height="226"/>
			<rect x="434.4" y="-745" class="st5" width="2" height="226"/>
			<rect x="436.4" y="-745" class="st4" width="2" height="226"/>
			<rect x="438.4" y="-745" class="st6" width="2" height="226"/>
			<rect x="440.4" y="-745" class="st1" width="2" height="226"/>
			<rect x="442.4" y="-745" class="st7" width="2" height="226"/>
			<rect x="444.4" y="-745" class="st2" width="2" height="226"/>
			<rect x="446.4" y="-745" class="st3" width="2" height="226"/>
			<rect x="448.4" y="-745" class="st14" width="2" height="226"/>
			<rect x="450.4" y="-745" class="st8" width="2" height="226"/>
			<rect x="452.4" y="-745" class="st7" width="2" height="226"/>
			<rect x="454.4" y="-745" class="st20" width="2" height="226"/>
			<rect x="456.4" y="-745" class="st1" width="2" height="226"/>
			<rect x="458.4" y="-745" class="st21" width="2" height="226"/>
			<rect x="460.4" y="-745" class="st10" width="2" height="226"/>
			<rect x="462.4" y="-745" class="st6" width="2" height="226"/>
			<rect x="464.4" y="-745" class="st11" width="2" height="226"/>
			<rect x="466.5" y="-745" class="st12" width="2" height="226"/>
			<rect x="468.5" y="-745" class="st13" width="2" height="226"/>
			<rect x="470.5" y="-745" class="st6" width="2" height="226"/>
			<rect x="472.5" y="-745" class="st1" width="2" height="226"/>
			<rect x="474.5" y="-745" class="st15" width="2" height="226"/>
			<rect x="476.5" y="-745" class="st21" width="2" height="226"/>
			<rect x="478.5" y="-745" class="st16" width="2" height="226"/>
			<rect x="480.5" y="-745" class="st4" width="2" height="226"/>
			<rect x="482.5" y="-745" class="st15" width="2" height="226"/>
			<rect x="484.5" y="-745" class="st17" width="2" height="226"/>
			<rect x="486.5" y="-745" class="st18" width="2" height="226"/>
			<rect x="488.5" y="-745" class="st1" width="2" height="226"/>
			<rect x="490.5" y="-745" class="st2" width="2" height="226"/>
			<rect x="492.5" y="-745" class="st3" width="2" height="226"/>
			<rect x="494.5" y="-745" class="st4" width="2" height="226"/>
			<rect x="496.5" y="-745" class="st5" width="2" height="226"/>
			<rect x="498.5" y="-745" class="st4" width="2" height="226"/>
			<rect x="500.5" y="-745" class="st6" width="2" height="226"/>
			<rect x="502.5" y="-745" class="st1" width="2" height="226"/>
			<rect x="504.5" y="-745" class="st7" width="2" height="226"/>
			<rect x="506.5" y="-745" class="st2" width="2" height="226"/>
			<rect x="508.5" y="-745" class="st3" width="2" height="226"/>
			<rect x="394.3" y="-745" class="st9" width="2" height="226"/>
		</g>
	</g>
</pattern>
<g>
	<g>
		<g>
			<g>
				<g>
					<path class="st22" d="M291.2,405c-0.2-0.3-0.5-0.6-0.6-1c-1.9-2.9-4.2-5.6-6.4-8.3l-0.2-0.2l-0.3-0.4c-2.9-3.5-6.1-6.9-8.5-9.3
						c-2.3-2.3-4.8-4.6-7.3-6.8l-0.2-0.2c-4.1-3.6-8.5-7-13.6-10.3c-7.2-4.8-14.7-8.7-22.2-11.8c-6.9-2.8-14.3-5-21.7-6.4
						c-4.4-0.9-9.1-1.5-14.8-2l0,0c-1.7-0.2-3.3-0.4-4.6-0.6c-1.1-0.2-2.2-0.2-3.2-0.4c-1.2-0.2-2.3-0.2-3.5-0.3l-1-0.1
						c-1.1-0.2-2.3-0.2-3.5-0.4c-0.9-0.1-1.9-0.2-2.7-0.3c-0.3,0-0.6-0.1-0.9-0.1c-1.6-0.2-3.3-0.3-4.9-0.5l-0.5-0.1
						c-1-0.1-2.1-0.2-3.1-0.2c-0.7-0.1-1.5-0.1-2.3-0.2c-0.7-0.1-1.5-0.1-2.3-0.2c-0.3,0-0.6-0.1-1-0.1l-5.5-0.4l-0.8-0.1
						c-2-0.2-4-0.3-6-0.5h-0.1c-0.5-0.1-1-0.1-1.6-0.1c-0.3,0-0.6,0-0.9,0l-2-0.1c-1.8-0.1-3.6-0.1-6-0.2c-0.7,0-1.5,0-2.3,0
						c-1.4,0-2.7,0-4.1-0.1c-4.6-0.3-9.3-1.1-14.3-2.4c-5.2-1.4-9.7-3.1-13.8-5.2c-5.5-2.9-9.7-5.9-13.2-9.3
						c-3.4-3.5-6.4-7.5-8.6-12c-2.7-5.1-4.4-10.4-5.2-16.1c-0.3-2.2-0.6-3.9-0.7-5.8c-0.2-3.1,0-6.4,0.8-10.5
						c0.6-2.7,1.2-5.7,2.6-8.9c2-4.7,4.3-8.6,6.9-12.1c3.2-4.2,7-7.9,11.2-11.1c2.5-1.9,5.2-3.6,8.8-5.7c8.3-4.9,16.8-9.3,24.9-13.3
						c7.3-3.6,14.1-7.1,20.5-10.2l4.3-1.9c0,0,3,0.9,3.1,0.9l-9,6.1c-7.5,4.4-15,9.2-22.5,13.7c-3.2,1.9-6.5,4.1-9.3,5.9
						c-0.8,0.6-1.6,1-2.4,1.6c-0.8,0.6-1.6,1-2.4,1.5l0,0c-3.9,2.5-7.6,5.2-11,8.2c-4.2,3.7-7.2,7.1-9.3,10.6
						c-2.7,4.5-4.4,9.1-4.8,13.9c-0.5,4.9,0.2,9.8,2.3,14.8c0.2,0.5,0.5,1,1,1.7c1.7,2.2,3.8,4,6.5,6c4.4,3.1,9.5,5.3,16.2,7.3
						c4.5,1.3,9.3,2.2,14.7,2.7c4.1,0.5,8.3,0.6,12.4,0.9h0.6c2.6,0.1,5.2,0.3,7.3,0.5c0.8,0.1,1.7,0.1,2.5,0.2
						c0.6,0,1.2,0.1,1.8,0.1c0.9,0.1,1.9,0.1,2.7,0.2c0.4,0,0.7,0,1.1,0.1c0.6,0.1,1.2,0.1,1.8,0.1c1.4,0.1,2.8,0.2,4.3,0.2
						c3.9,0.3,7.7,0.6,11,0.9l5,0.4c0.9,0.1,1.8,0.2,2.7,0.2c0.5,0.1,0.9,0.1,1.4,0.1h0.2c2.6,0.2,5.2,0.4,7.8,0.6
						c4,0.4,8.6,1,14.3,1.8c5.6,0.7,11.6,2.3,18.1,4.6l1.1,0.4c3.5,1.2,7.1,2.5,10.6,3.9c3.5,1.5,7.2,3.3,11.5,5.6
						c3.9,2.1,7.7,4.4,11.4,6.8c2.7,1.8,5.5,3.8,8.3,6.1c3.5,2.9,6.8,5.7,10,8.8c3.3,3.1,6.5,6.8,9.8,11.3c0.6,0.8,1.3,1.7,1.9,2.6
						l0.5,0.7l0.6,0.9c0-0.1,0-0.2,0-0.3c0-0.8,0-1.6,0-2.4c-0.1-2.2-0.2-4.4-0.3-6.4c-0.2-2.5-0.3-5.5-0.6-8.5
						c-0.2-1.9-0.4-4-0.7-6.8c-0.3-3-0.7-6.4-1.2-9.8l-0.1-0.7c-0.4-2.9-0.9-6.2-1.5-9.6c-0.3-1.7-0.6-3.5-1-5.2
						c-0.1-0.6-0.2-1.1-0.3-1.6l-0.2-0.9c-0.2-1-0.4-2.1-0.6-3.2c-0.5-2.6-1-5-1.4-7.3l-1.4-7.3c-0.6-3.3-1.2-6.5-1.9-9.8
						c-0.4-2.3-0.9-4.8-1.3-7l-0.3-1.9c-0.6-3.5-1.4-7.3-2-10.9c-1-5-1.9-10.4-2.7-15.9c-0.6-4.4-1-8.6-1.4-12.7
						c-0.3-3.5-0.6-8.1-0.8-12.6c-0.2-5.8-0.3-11.5-0.2-17.1c0.2-5,0.6-9.8,1.5-14.4l0.8-4.7l2.7,3.9c0.1,0.1,0.1,0.2,0.2,0.2
						c0.1,0.1,0.2,0.2,0.2,0.3l0.1,0.1c3.3,4.8,6.9,8.6,11,11.6c3.1,2.3,6.6,3.6,10.2,3.6c1.2,0,2.4-0.4,3.8-1.4
						c1.6-1,2.8-2.6,3.8-3.9c2.3-3.2,4.4-7,6.3-11.7c1-2.7,2.2-5.3,3.2-7.7l1.4-3.4c0.6-1.4,1.2-2.8,1.8-4.2
						c0.2-0.6,0.5-1.1,0.7-1.6l16.1-36.8c1.5-3.3,2.9-6.7,4.4-10l0.1-0.2c0.6-1.5,1.3-2.9,1.9-4.3l0.4-0.9l1.5-2.9l2.6,2.1
						c1.3,1.1,2.3,1.9,3.3,2.7l0,0c1,0.8,2.1,1.7,3.6,2.8c0.8,0.6,1.7,1.3,2.5,1.9c0.5,0.4,1,0.8,1.5,1.2l0,0c0.9,0.6,1.7,1.4,2.5,2
						c1.3,1,2.6,2.1,3.9,3.2l6.9,5.6c1.8,1.5,3.5,2.9,5.3,4.3c5.4,4.1,10.1,9.2,14.3,15.4c2.5,3.8,4.4,7.9,5.6,12.3
						c1.2,4.4,1.5,8.7,1,12.9c-0.8,6-2.9,11.6-6.4,16.7c-2.8,4.2-6.6,8-11.5,11.5c-3.3,2.3-6.9,4.4-10.8,6c-3.2,1.4-6.4,2.5-9.3,3.5
						c-1.9,0.6-3.9,1.2-5.7,1.8l-0.6,0.2l-4.5,1.4c-3.5,1-6.5,1.9-9.4,2.7c-7.1,2-14.7,4.1-22.4,6.1c-3.7,1-7.5,1.9-11.2,2.9
						c-1,0.2-2.2,0.6-3.3,0.8l-0.6,0.2c-1.8,0.4-3.5,0.9-5.2,1.3c-0.7,0.2-4.4,1.1-4.4,1.1v0.2c0,0.6,0,1.2,0,1.8
						c0.1,1.5,0.2,2.9,0.3,4.4l0.2,2.3c0.1,0.8,0.2,1.7,0.2,2.7c0.2,1.8,0.2,3.6,0.4,5.4c0.4,3.9,0.9,8.1,1.5,12.2l0.2,1.6l0.1,0.7
						c0.3,2.7,0.7,5.5,1.2,8.1c0.6,3.1,1.1,6.3,1.8,9.3l0.2,0.6c0.6,3.2,1.1,5.9,1.6,8.6c1.4,7.7,2.3,13.1,3.1,18.4
						c0.6,3.5,0.9,7.1,1.1,10.8c0.2,1.8,0.2,3.6,0.3,5.3v0.6c0.1,1.5,0.2,3.1,0.3,4.7c0.4,4.6,0.3,9.3,0.2,13.8l0,0c0,1,0,2,0,3.1
						v0.3c0,2.2-0.2,4.4-0.4,6.5l-0.1,0.5c0,0.4-0.1,0.8-0.1,1.2c-0.1,1-0.2,1.9-0.2,2.9c-0.3,4.7-1.1,9.2-2,13.5
						c-1.2,6.1-2.8,11.7-5,16.9l-1.3,3.3L291.2,405z M341.5,157.3c-4.5,10.8-9,21.6-13.5,32.5c-3.5,8.5-7.1,16.9-10.6,25.5
						c3.5-1.2,7.2-2.4,10.9-3.6c3.6-1.2,7.3-2.3,10.9-3.5c3.7-1.2,7.6-2.4,11.4-3.7c5.5-1.8,11.1-3.7,16.5-5.5
						c2.7-0.9,5.4-1.8,8.1-2.7c2.1-0.6,4.2-1.4,6.2-2c0.8-0.2,1.5-0.5,2.3-0.7C375,185.9,348.9,163.4,341.5,157.3z"/>
				</g>
				<g>
					<pattern  id="SVGID_4_" xlink:href="#SVGID_3_" patternTransform="matrix(0.8596 0 0 -0.8596 -3017.9705 -17216.3418)">
					</pattern>
					<path class="st23" d="M392.1,179.7c-1.2-4.2-3-8.1-5.4-11.8c-4-6-8.5-11-13.8-14.9c-1.8-1.4-3.6-2.8-5.4-4.4l-6.9-5.6
						c-2.2-1.8-4.3-3.5-6.4-5.2c-1.4-1-2.7-2.1-3.9-3.1c-1.2-1-2.4-1.9-3.6-2.9c-1.1-0.9-2.2-1.8-3.3-2.7l-0.7-0.6l-0.3,0.7
						c-0.7,1.7-1.5,3.4-2.3,5.1c-1.5,3.4-3,6.8-4.4,10.2l-16.1,36.8c-0.8,1.9-1.7,3.9-2.5,5.8l-1.5,3.4c-1,2.6-2.2,5.1-3.1,7.7
						c-1.9,4.8-4,8.8-6.5,12.2c-1,1.5-2.3,3.1-4.2,4.4c-1.7,1.1-3.2,1.7-4.9,1.7c-4,0-7.9-1.4-11.4-4c-4.2-3.1-7.9-7.1-11.4-12.1
						c-0.2-0.2-0.2-0.4-0.4-0.6c-0.8,4.5-1.3,9.3-1.5,14.2c-0.2,5.6,0,11.2,0.2,16.9c0.2,4.5,0.6,9,0.8,12.4
						c0.3,3.7,0.7,8.1,1.4,12.6c0.8,5.3,1.7,10.5,2.7,15.8c0.7,4.1,1.5,8.1,2.3,12.2c0.5,2.5,1,5,1.5,7.6c0.6,3.2,1.2,6.5,1.8,9.7
						l1.4,7.3c0.4,2.5,0.9,4.9,1.4,7.3c0.2,1.4,0.5,2.7,0.8,4.1c0.5,2.3,0.9,4.6,1.3,6.8c0.6,3.7,1.1,7.3,1.6,10.4
						c0.4,3.3,0.8,6.6,1.2,9.8c0.2,2.3,0.5,4.6,0.7,6.9c0.2,2.8,0.4,5.6,0.6,8.5c0.1,2.2,0.2,4.4,0.2,6.5c0,1.2,0,2.5,0,3.7v1.2
						c0,0.2-0.1,0.5-0.2,0.7c-0.1,0.1-0.1,0.2-0.2,0.3l-0.5,1.1l-1.1-1.2c-0.2-0.2-0.5-0.5-0.6-0.7l-1.5-2.1
						c-0.8-1.1-1.5-2.2-2.4-3.3c-3.2-4.4-6.4-8-9.6-11c-3.1-2.9-6.3-5.7-9.9-8.7c-2.7-2.3-5.5-4.4-8.1-6c-3.6-2.3-7.4-4.6-11.2-6.7
						c-4.1-2.2-7.7-4-11.4-5.6c-3.4-1.5-7-2.7-10.4-3.9l-1.1-0.4c-6.4-2.3-12.2-3.7-17.7-4.4c-5.6-0.8-10.1-1.4-14.2-1.8
						c-2.7-0.2-5.3-0.5-7.9-0.6c-1.4-0.1-2.7-0.2-4-0.3l-5-0.4c-3.6-0.3-7.3-0.6-11-0.9c-2-0.2-4-0.2-6-0.4
						c-1.3-0.1-2.6-0.2-3.9-0.2c-1.5-0.1-2.9-0.2-4.3-0.2c-2.4-0.2-4.8-0.3-7.3-0.5c-4.3-0.2-8.7-0.4-13.1-0.9
						c-5.6-0.6-10.5-1.5-15-2.8c-6.9-2-12.2-4.4-16.8-7.5c-2.9-2-5.1-4.1-6.9-6.4c-0.6-0.8-1-1.5-1.3-2.2c-2.2-5.4-3-10.6-2.4-15.7
						c0.5-5.2,2.2-10,5.1-14.8c2.3-3.7,5.3-7.2,9.7-11c3.4-3,7.2-5.8,11.3-8.4c1.6-1,3.2-2.1,4.8-3.1c3.1-2,6.2-4,9.3-6
						c7.9-4.8,16-9.5,23.8-14c0.9-0.6,1.8-1,2.7-1.5c-0.2,0.1-0.3,0.2-0.4,0.2c-6.7,3.3-13.6,6.7-20.5,10.2c-8,4-16.4,8.4-24.7,13.2
						c-3.5,2.1-6.2,3.8-8.5,5.6c-4.1,3.1-7.7,6.8-10.9,10.8c-2.6,3.3-4.8,7.2-6.6,11.7c-1.2,2.9-1.9,5.9-2.4,8.5
						c-0.8,3.8-1,6.9-0.8,9.9c0.2,1.9,0.4,3.7,0.7,5.6c0.9,5.6,2.5,10.6,5.1,15.6c2.3,4.4,5,8.2,8.3,11.5c3.3,3.3,7.4,6.2,12.7,9
						c4,2.1,8.4,3.8,13.3,5.1c4.9,1.3,9.5,2.1,13.9,2.3c2.1,0.2,4.1,0.1,6.3,0.1c2,0.1,4,0.1,6,0.2l2,0.1c0.9,0,1.8,0,2.7,0.1
						c2.3,0.2,4.5,0.3,6.8,0.6l5.5,0.4c1,0.1,2.2,0.2,3.3,0.2c1.8,0.2,3.6,0.2,5.4,0.4c1.8,0.2,3.6,0.4,5.4,0.6
						c1.2,0.2,2.4,0.2,3.6,0.4c1.2,0.2,2.3,0.2,3.5,0.4c1.5,0.2,3,0.2,4.4,0.4c1.1,0.1,2.2,0.2,3.3,0.4c1.5,0.2,3,0.4,4.5,0.6
						c5.9,0.6,10.6,1.1,15.1,2c7.6,1.5,15,3.7,22.1,6.5c7.7,3.1,15.2,7.1,22.6,11.9c5.2,3.4,9.7,6.8,13.9,10.5l0.2,0.2
						c2.5,2.2,5,4.4,7.4,6.8c2.5,2.5,5.7,5.9,8.7,9.5l0.3,0.4c2.3,2.7,4.6,5.6,6.6,8.6c0.2,0.3,0.4,0.6,0.6,0.9
						c2.1-5.2,3.7-10.6,4.8-16.6c0.9-4.4,1.7-8.8,1.9-13.2c0.1-1.4,0.2-2.8,0.3-4.2c0.2-2.3,0.4-4.6,0.4-6.9c0-1.1,0-2.3,0.1-3.4
						c0.1-4.4,0.1-9-0.2-13.5c-0.2-1.8-0.2-3.5-0.3-5.3c-0.1-1.8-0.2-3.5-0.3-5.2c-0.3-3.5-0.6-7.2-1.1-10.6
						c-0.8-5.3-1.8-10.9-3.1-18.3c-0.5-2.9-1-5.7-1.6-8.6c-0.6-3.4-1.3-6.7-1.9-10.1c-0.6-3-0.9-6-1.3-8.9l-0.2-1.6
						c-0.5-4.1-1-8.2-1.5-12.3c-0.2-1.9-0.3-3.7-0.4-5.5c-0.1-0.9-0.2-1.9-0.2-2.7l-0.2-2.2c-0.2-1.5-0.2-2.9-0.3-4.4
						c0-0.6,0-1.4,0-2v-1.5l0.9-0.3c0.2-0.1,0.4-0.2,0.6-0.2l2.4-0.6c2.4-0.6,4.9-1.2,7.3-1.8l0.6-0.2c4.8-1.2,9.6-2.4,14.4-3.7
						c7.5-2,14.9-4,22.3-6.1c3.1-0.9,6.3-1.8,9.4-2.7l4.5-1.4c2.1-0.6,4.2-1.2,6.2-1.9c3.1-1,6.2-2.3,9.3-3.5
						c3.7-1.5,7.3-3.5,10.5-5.8c4.8-3.4,8.4-7,11-11c3.2-4.8,5.3-10.2,6-15.9C393.6,187.9,393.3,183.8,392.1,179.7z M385.3,194.6
						c-3.4,1.1-6.8,2.2-10.2,3.3c-8,2.7-16,5.3-24,8c-7.3,2.3-14.5,4.7-21.8,7c-4.5,1.5-8.9,3-13.5,4.5c-0.3,0.1-0.6,0.2-1.2,0.3
						c8.9-21,17.6-41.9,26.3-62.8c1.1,0.5,41.7,35.6,45.6,39.2C386.1,194.2,385.7,194.5,385.3,194.6z"/>
				</g>
			</g>
			<g>
				<path class="st22" d="M703,304.8c0,9.2,10,13.9,21.1,18.6c13.7,5.9,28.8,12.6,28.8,29.5c0,16.3-13.4,27.1-33.5,27.1
					c-16.6,0-30.4-11.8-30.4-26.4V348c3.5,0,7.4,3.5,7.4,7.4c0,12.2,10.1,21.7,23,21.7c13.4,0,22.3-8.7,22.3-21.7
					c0-10.2-10.6-14.9-22.2-19.8c-13.1-5.6-27.1-12-27.1-27.4c0-15.4,12.1-24.1,29.5-24.1c8.9,0,15.2,3.3,19.9,7
					c1,0.8,2.3,3.1,2.4,3.6l1-0.3c-0.3-1.1-0.5-2.8-0.6-5.1l-0.5-8.4h1.5l1.6,37.4l-2.7,0.2l-0.3-6.6c-0.6-12.5-7.7-24.8-22.4-24.8
					C710.1,287.1,703,292.2,703,304.8z"/>
				<path class="st22" d="M343,307.8c-11.5,0-17.6,7.2-18,16.7l-0.3,7.6h-2.1l1.3-29h1.1l-0.3,6.5c-0.1,1.7-0.2,3.1-0.5,3.9l0.8,0.2
					c0.2-0.4,1-2.3,1.9-2.8c3.6-2.8,9-5.4,16-5.4c17.9,0,29.8,8.9,29.8,22.3v42.2c0,4.9,0.3,6.3,3.8,6.3c0.7,0,2.3-0.2,2.3-0.2
					l2-0.1l0.1,1.1c-5.7,0.6-9.3,1.6-12.7,2.7V379c0-3.1-0.6-7.3-1.2-11c-0.6-3.1-0.9-6-1-8H365c-3.5,14.7-16.9,19.9-25.3,19.9
					c-14.5,0-24.3-7.8-24.3-19.5c0-13.5,9.7-22.5,24.1-22.5c9.5,0,17.2,6.3,17.2,14c0,3.1-2.3,5.6-5,5.6v-5.8
					c0-6.4-5.5-11.5-12.2-11.5c-8.9,0-14.8,8-14.8,19.9c0,9.9,6.5,16.6,16.4,16.6c12.5,0,22.6-11.4,22.6-25.4v-24.8
					C363.6,315.2,355.3,307.8,343,307.8z"/>
				<path class="st22" d="M400.1,351.6c-3,0-6,2.3-6,17.4v12.7h-0.9v-16.1V289c0-2.3-1.2-3.7-3.5-3.7h-5.5v-1.1h6.6
					c4.8,0,10.5-1.5,10.5-6.5v-0.5h1v10.5V302c0,11.8-1.9,28.4-2.1,29.5c0.2,0,0.5,0,0.6,0c3.1-13.8,16.2-26,29.3-26
					c21,0,34.9,14.8,34.9,37.1c0,7.3-1.9,13.9-5.3,19.7c8,8.1,16.4,15.1,26.4,15.1c14,0,25.9-10.4,29.3-24.4
					c-3,5.6-8.9,9.5-15.8,9.5c-12.7,0-21.2-7.3-21.2-18v-29.7c0-2.4-1.2-3.7-3.5-3.7h-5.5v-1.1h6.6c4.8,0,10.5-1.5,10.5-6.5v-0.5
					h0.9v10.4v34.2c0,7.6,4.9,12.7,12.2,12.7c8.6,0,15.6-6.9,15.6-15.5c0-7.8-6.2-14.1-13.9-14.1c-2.9,0-5.2-2.3-5.2-5.3h2.3
					c10.4,0,18.9,8.7,18.9,19.4c0,19.3-14.5,34.9-32.4,34.9c-10.7,0-19-7.1-26.7-15.3c-6.4,9.3-16.8,15.3-28.5,15.3
					c-12.4,0-22.5-9.8-22.5-21.8c0-10.7,8.4-19.4,18.7-19.4c10.2,0,18.5,7.9,26.9,16.6c1.4-4.5,2.1-9.5,2.1-14.7
					c0-18-10.9-32.6-24.3-32.6c-14.2,0-28.4,15-28.4,30v13.9h-2.1V351.6z M426,340.2c-9.2,0-16.6,8-16.6,17.8
					c0,10.9,9.2,19.3,20.4,19.3c9.7,0,18-8,22.3-19.7C444,348.6,436,340.2,426,340.2z"/>
				<path class="st22" d="M541.1,371.3c0,5.9,0.7,6.5,6.3,6.5h4v1.1h-29.6v-1.1h4c5.6,0,6.1-0.6,6.1-6.5v-82.1
					c0-2.3-1.2-3.7-3.5-3.7h-5.5v-1.1h6.6c4.8,0,10.4-1.5,10.4-6.5v-0.5h1v21.5c0,11.8-2,30.9-2.1,31.9h0.8c0.2-2.3,1.2-5.9,1.9-8
					c3.4-10.4,11.6-17.2,21.2-17.2c12.5,0,19.5,7.4,19.5,18.5v40c-0.7,1.8-1,3.5-1,5c0,4.5,3,7.6,7.5,7.6c4,0,6.7-2.9,6.7-7.3
					c0-6.6-4.8-9.7-10.1-10.4c0-1.1,1.8-1.9,4.5-1.9c3.2,2.1,6.6,6.8,6.6,12.2c0,6.5-4.3,10.8-10.6,10.8c-6.9,0-12.5-7.2-12.5-16
					v-38c0-12.1-3.2-18.5-11.4-18.5c-11.8,0-20.9,12-20.9,30L541.1,371.3L541.1,371.3z"/>
				<path class="st22" d="M628.8,307.8c-11.4,0-17.6,7.2-18,16.7l-0.3,7.6h-2.1l1.3-29h1.1l-0.3,6.5c-0.1,1.7-0.2,3.1-0.5,3.9
					l0.8,0.2c0.2-0.4,1-2.3,1.9-2.8c3.6-2.8,9-5.4,16-5.4c17.9,0,29.8,8.9,29.8,22.3v42.2c0,4.9,0.3,6.3,3.9,6.3
					c0.6,0,2.3-0.2,2.3-0.2l1.9-0.1l0.1,1.1c-5.7,0.6-9.3,1.6-12.7,2.7V379c0-3.1-0.6-7.3-1.2-11c-0.5-3.1-1-6-1-8h-1.1
					c-3.5,14.7-16.9,19.9-25.3,19.9c-14.5,0-24.3-7.8-24.3-19.5c0-13.5,9.7-22.5,24.1-22.5c9.5,0,17.2,6.3,17.2,14
					c0,3.1-2.3,5.6-5,5.6v-5.8c0-6.4-5.5-11.5-12.2-11.5c-8.9,0-14.8,8-14.8,19.9c0,9.9,6.5,16.6,16.4,16.6
					c12.5,0,22.6-11.4,22.6-25.4v-24.8C649.4,315.2,641.2,307.8,628.8,307.8z"/>
			</g>
			<g>
				<g>
					<path class="st24" d="M475.9,274.3c0.5,0.1,1,0.2,1.5,0.3c3.8,0.8,6.4,3.1,8,6.7c0.4,0.9,0.6,1.9,0.9,3c0.1,0,0.3,0,0.6,0
						c15.4,0,30.8,0,46.2,0c19.3-0.1,38.8-0.1,58.1-0.2c2.7,0,5.3-0.2,7.9-0.4c1.2-0.1,2.4-0.2,3.6-0.2c1.9-0.2,3.7-0.3,5.5-0.6
						c1.1-0.1,2.2-0.2,3.3-0.3c1.5-0.2,3.1-0.4,4.5-0.6c0.9-0.1,1.8-0.2,2.7-0.2c1.5-0.2,3-0.4,4.4-0.6c1.4-0.2,2.7-0.4,4.1-0.6
						c1.4-0.2,2.7-0.6,4-0.8c1.1-0.2,2.2-0.6,3.3-0.7c0.3-0.1,0.7,0.2,1.1,0.3c3.5,1.4,7.1,2.7,10.8,3.6c2.3,0.6,4.5,1,6.8,1.5
						c1.3,0.2,2.5,0.2,3.8,0.4c4.4,0.6,8.7,0.2,13.1,0.2c0.1,0,0.1,0,0.2,0c0,0.2,0,0.2,0,0.4c-2.7,0-5.2,0-7.9-0.1
						c-2.4-0.1-4.9,0.1-7.3,0.6c-2.5,0.5-5.1,0.9-7.6,1.5c-4.1,1-8.1,2.3-11.9,3.9c-1,0.5-2,0-3-0.2c-2.7-0.5-5.6-1-8.3-1.6
						c-1.7-0.3-3.4-0.6-5-0.8c-1.5-0.2-2.8-0.3-4.2-0.4c-1.5-0.2-2.9-0.4-4.4-0.6c-1-0.2-2.2-0.2-3.2-0.2c-2-0.2-4-0.4-6-0.6
						c-0.8-0.1-1.7-0.2-2.6-0.2c-1.3-0.1-2.6-0.1-3.9-0.2c-8.1-0.6-16.1-0.2-24.3-0.2c-6.7-0.1-13.5-0.1-20.2-0.2
						c-6.8-0.1-13.5-0.1-20.2-0.1c-6.8-0.1-13.6-0.1-20.5-0.2c-6.7-0.1-13.4-0.1-20.1-0.2c-1,0-2-0.1-2.9-0.2
						c-0.6,0-0.6,0.2-0.7,0.7c-0.2,3.1-1.7,5.6-4.1,7.6c-1.5,1.1-3.1,1.8-4.8,2.3c-0.4,0.1-0.9,0.2-1.3,0.2c-0.5,0-1,0-1.4,0
						c-0.2-0.1-0.2-0.1-0.4-0.2c-1-0.2-2-0.3-3-0.7c-3.5-1.5-5.8-4.2-6.7-8c-0.2-0.5-0.2-1-0.3-1.5c0-0.5,0-1,0-1.4
						c0.1-0.1,0.2-0.2,0.2-0.4c0.1-2,0.8-3.7,1.9-5.2c1.7-2.3,3.9-3.9,6.8-4.4c0.5-0.1,1-0.2,1.5-0.3
						C475,274.3,475.4,274.3,475.9,274.3z"/>
				</g>
				<path class="st24" d="M666.7,307.2c0-0.1,0-0.2-0.1-0.2c-0.1-1.3-0.1-1.3,1.1-1.8c3.2-1.4,5.6-3.5,6.8-6.9
					c0.2-0.8,0.3-1.6,0.3-2.4c0.1-1.5-0.6-1.9-1.9-1.2c-1.1,0.6-2.2,1-3.5,0.6c-1.7-0.4-2.8-1.8-3-3.5c-0.4-3.7,3.7-6.2,7.3-4.5
					c2.4,1.1,3.7,3.1,4.1,5.8c0.6,4.8-1.4,8.5-5.1,11.2C670.9,305.7,668.8,306.6,666.7,307.2z"/>
			</g>
		</g>
	</g>
</g>
</svg>
