<svg width="9" height="17" viewBox="0 0 9 17" fill="none" xmlns="http://www.w3.org/2000/svg">
<path fill-rule="evenodd" clip-rule="evenodd" d="M6.75 0C7.34674 0 7.91903 0.223883 8.34099 0.622398C8.76295 1.02091 9 1.56141 9 2.125V14.875C9 15.4386 8.76295 15.9791 8.34099 16.3776C7.91903 16.7761 7.34674 17 6.75 17H2.25C1.65326 17 1.08097 16.7761 0.65901 16.3776C0.237053 15.9791 0 15.4386 0 14.875V2.125C0 1.56141 0.237053 1.02091 0.65901 0.622398C1.08097 0.223883 1.65326 0 2.25 0H6.75ZM1.125 4.25V3.1875H4.01786C4.17857 3.1875 4.5 3.29375 4.5 3.71875C4.5 4.14375 4.17857 4.25 4.01786 4.25H1.125ZM1.125 5.3125V6.375H4.5C4.66071 6.375 4.98214 6.26875 4.98214 5.84375C4.98214 5.41875 4.66071 5.3125 4.5 5.3125H1.125ZM1.125 8.5V7.4375H4.98214C5.19643 7.4375 5.625 7.54375 5.625 7.96875C5.625 8.39375 5.19643 8.5 4.98214 8.5H1.125ZM1.125 9.5625V10.625H4.98214C5.19643 10.625 5.625 10.5188 5.625 10.0938C5.625 9.66875 5.19643 9.5625 4.98214 9.5625H1.125ZM1.125 12.75V11.6875H4.49984C4.71413 11.6875 5.1427 11.7937 5.1427 12.2188C5.1427 12.6438 4.71413 12.75 4.49984 12.75H1.125ZM1.125 13.8125V14.875H4.01786C4.17857 14.875 4.5 14.7688 4.5 14.3438C4.5 13.9187 4.17857 13.8125 4.01786 13.8125H1.125Z" fill="#FEFEFE"/>
</svg>
