<svg width="15" height="10" viewBox="0 0 15 10" fill="none" xmlns="http://www.w3.org/2000/svg">
<path d="M14.9094 4.61979C13.4971 1.86432 10.7013 0 7.5 0C4.29869 0 1.50207 1.86563 0.0906109 4.62005C0.0310384 4.73789 0 4.86809 0 5.00013C0 5.13217 0.0310384 5.26237 0.0906109 5.38021C1.50285 8.13568 4.29869 10 7.5 10C10.7013 10 13.4979 8.13437 14.9094 5.37995C14.969 5.26211 15 5.13191 15 4.99987C15 4.86783 14.969 4.73763 14.9094 4.61979V4.61979ZM7.5 8.75C6.75832 8.75 6.03329 8.53007 5.41661 8.11801C4.79992 7.70596 4.31927 7.12029 4.03545 6.43506C3.75162 5.74984 3.67735 4.99584 3.82205 4.26841C3.96674 3.54098 4.3239 2.8728 4.84834 2.34835C5.37279 1.8239 6.04098 1.46675 6.76841 1.32206C7.49584 1.17736 8.24984 1.25162 8.93507 1.53545C9.62029 1.81928 10.206 2.29993 10.618 2.91661C11.0301 3.5333 11.25 4.25832 11.25 5C11.2502 5.49252 11.1534 5.98027 10.965 6.43535C10.7767 6.89043 10.5005 7.30392 10.1522 7.65218C9.80392 8.00045 9.39043 8.27667 8.93535 8.46504C8.48027 8.65341 7.99253 8.75024 7.5 8.75V8.75ZM7.5 2.5C7.27686 2.50312 7.05515 2.53632 6.84088 2.5987C7.0175 2.83872 7.10226 3.13408 7.07978 3.43124C7.0573 3.72839 6.92908 4.00764 6.71836 4.21836C6.50764 4.42908 6.22838 4.5573 5.93123 4.57978C5.63408 4.60226 5.33871 4.5175 5.09869 4.34089C4.96202 4.84442 4.98669 5.37814 5.16924 5.86693C5.35178 6.35571 5.68301 6.77494 6.1163 7.06561C6.54959 7.35629 7.06313 7.50377 7.58463 7.48729C8.10613 7.47082 8.60933 7.29122 9.02341 6.97378C9.43749 6.65634 9.7416 6.21703 9.89293 5.7177C10.0443 5.21838 10.0352 4.68416 9.86701 4.19025C9.69882 3.69635 9.37999 3.26761 8.95538 2.9644C8.53076 2.66119 8.02176 2.49877 7.5 2.5V2.5Z" fill="black"/>
</svg>
