<svg width="13" height="17" viewBox="0 0 13 17" fill="none" xmlns="http://www.w3.org/2000/svg">
<path d="M11.375 2.125H8.66667C8.66667 0.95293 7.69505 0 6.5 0C5.30495 0 4.33333 0.95293 4.33333 2.125H1.625C0.727865 2.125 0 2.83887 0 3.71875V15.4062C0 16.2861 0.727865 17 1.625 17H11.375C12.2721 17 13 16.2861 13 15.4062V3.71875C13 2.83887 12.2721 2.125 11.375 2.125ZM3.25 14.0781C2.79974 14.0781 2.4375 13.7229 2.4375 13.2812C2.4375 12.8396 2.79974 12.4844 3.25 12.4844C3.70026 12.4844 4.0625 12.8396 4.0625 13.2812C4.0625 13.7229 3.70026 14.0781 3.25 14.0781ZM3.25 10.8906C2.79974 10.8906 2.4375 10.5354 2.4375 10.0938C2.4375 9.65215 2.79974 9.29688 3.25 9.29688C3.70026 9.29688 4.0625 9.65215 4.0625 10.0938C4.0625 10.5354 3.70026 10.8906 3.25 10.8906ZM3.25 7.70312C2.79974 7.70312 2.4375 7.34785 2.4375 6.90625C2.4375 6.46465 2.79974 6.10938 3.25 6.10938C3.70026 6.10938 4.0625 6.46465 4.0625 6.90625C4.0625 7.34785 3.70026 7.70312 3.25 7.70312ZM6.5 1.32812C6.95026 1.32812 7.3125 1.6834 7.3125 2.125C7.3125 2.5666 6.95026 2.92188 6.5 2.92188C6.04974 2.92188 5.6875 2.5666 5.6875 2.125C5.6875 1.6834 6.04974 1.32812 6.5 1.32812ZM10.8333 13.5469C10.8333 13.693 10.7115 13.8125 10.5625 13.8125H5.6875C5.53854 13.8125 5.41667 13.693 5.41667 13.5469V13.0156C5.41667 12.8695 5.53854 12.75 5.6875 12.75H10.5625C10.7115 12.75 10.8333 12.8695 10.8333 13.0156V13.5469ZM10.8333 10.3594C10.8333 10.5055 10.7115 10.625 10.5625 10.625H5.6875C5.53854 10.625 5.41667 10.5055 5.41667 10.3594V9.82812C5.41667 9.68203 5.53854 9.5625 5.6875 9.5625H10.5625C10.7115 9.5625 10.8333 9.68203 10.8333 9.82812V10.3594ZM10.8333 7.17188C10.8333 7.31797 10.7115 7.4375 10.5625 7.4375H5.6875C5.53854 7.4375 5.41667 7.31797 5.41667 7.17188V6.64062C5.41667 6.49453 5.53854 6.375 5.6875 6.375H10.5625C10.7115 6.375 10.8333 6.49453 10.8333 6.64062V7.17188Z" fill="black"/>
</svg>
