<svg width="13" height="15" viewBox="0 0 13 15" fill="none" xmlns="http://www.w3.org/2000/svg">
<path id="dairy" d="M13 10.5469V0.703125C13 0.313477 12.6895 0 12.3036 0H2.78571C1.24777 0 0 1.25977 0 2.8125V12.1875C0 13.7402 1.24777 15 2.78571 15H12.3036C12.6895 15 13 14.6865 13 14.2969V13.8281C13 13.6084 12.8984 13.4092 12.7417 13.2803C12.6199 12.8291 12.6199 11.543 12.7417 11.0918C12.8984 10.9658 13 10.7666 13 10.5469ZM3.71429 3.92578C3.71429 3.8291 3.79263 3.75 3.88839 3.75H10.0402C10.1359 3.75 10.2143 3.8291 10.2143 3.92578V4.51172C10.2143 4.6084 10.1359 4.6875 10.0402 4.6875H3.88839C3.79263 4.6875 3.71429 4.6084 3.71429 4.51172V3.92578ZM3.71429 5.80078C3.71429 5.7041 3.79263 5.625 3.88839 5.625H10.0402C10.1359 5.625 10.2143 5.7041 10.2143 5.80078V6.38672C10.2143 6.4834 10.1359 6.5625 10.0402 6.5625H3.88839C3.79263 6.5625 3.71429 6.4834 3.71429 6.38672V5.80078ZM11.0674 13.125H2.78571C2.2721 13.125 1.85714 12.7061 1.85714 12.1875C1.85714 11.6719 2.275 11.25 2.78571 11.25H11.0674C11.0123 11.751 11.0123 12.624 11.0674 13.125Z" fill="#27274D"/>
</svg>
