<svg width="18" height="17" viewBox="0 0 18 17" fill="none" xmlns="http://www.w3.org/2000/svg">
<path d="M17 12.625V4.375C17 3.61417 16.4092 3 15.6772 3H3.32275C2.59083 3 2 3.61417 2 4.375V12.625C2 13.3858 2.59083 14 3.32275 14H15.6772C16.4092 14 17 13.3858 17 12.625ZM15.8448 4.27417C16.1358 4.57667 15.9771 4.88833 15.8183 5.04417L12.2381 8.45417L15.6772 12.1758C15.7831 12.3042 15.8536 12.5058 15.7302 12.6433C15.6155 12.79 15.351 12.7808 15.2363 12.6892L11.3827 9.27L9.49559 11.0575L7.61728 9.27L3.76367 12.6892C3.64903 12.7808 3.38448 12.79 3.26984 12.6433C3.14638 12.5058 3.21693 12.3042 3.32275 12.1758L6.7619 8.45417L3.18166 5.04417C3.02293 4.88833 2.8642 4.57667 3.1552 4.27417C3.44621 3.97167 3.74603 4.11833 3.99295 4.33833L9.49559 8.95833L15.0071 4.33833C15.254 4.11833 15.5538 3.97167 15.8448 4.27417Z" fill="#27274D"/>
</svg>
