<svg width="18" height="18" viewBox="0 0 18 18" fill="none" xmlns="http://www.w3.org/2000/svg">
<path d="M9 6.85687C8.57616 6.85703 8.16189 6.98286 7.80956 7.21845C7.45723 7.45403 7.18267 7.7888 7.02058 8.18042C6.8585 8.57204 6.81617 9.00292 6.89896 9.4186C6.98174 9.83427 7.18592 10.2161 7.48567 10.5157C7.78542 10.8153 8.16729 11.0194 8.583 11.102C8.9987 11.1846 9.42957 11.1421 9.82113 10.9799C10.2127 10.8177 10.5473 10.543 10.7828 10.1906C11.0183 9.83816 11.1439 9.42384 11.1439 9C11.1435 8.4316 10.9175 7.88661 10.5155 7.48477C10.1135 7.08292 9.5684 6.85709 9 6.85687ZM14.0107 5.20955C13.9016 4.93306 13.7368 4.68194 13.5266 4.47176C13.3165 4.26158 13.0653 4.09683 12.7888 3.98772C11.9451 3.65464 9.93616 3.72937 9 3.72937C8.06384 3.72937 6.05692 3.65183 5.21076 3.98772C4.93427 4.09683 4.68314 4.26158 4.47296 4.47176C4.26278 4.68194 4.09803 4.93306 3.98893 5.20955C3.65625 6.0533 3.73058 8.06424 3.73058 8.9996C3.73058 9.93496 3.65625 11.9435 3.99054 12.79C4.09964 13.0665 4.26439 13.3177 4.47457 13.5278C4.68475 13.738 4.93587 13.9028 5.21237 14.0119C6.05612 14.345 8.06504 14.2702 9.00161 14.2702C9.93817 14.2702 11.9443 14.3478 12.7904 14.0119C13.0669 13.9028 13.3181 13.738 13.5282 13.5278C13.7384 13.3177 13.9032 13.0665 14.0123 12.79C14.3478 11.9463 14.2706 9.93536 14.2706 9C14.2706 8.06464 14.3478 6.05652 14.0123 5.20996L14.0107 5.20955ZM9 12.2946C8.34838 12.2946 7.7114 12.1014 7.16959 11.7394C6.62779 11.3774 6.20551 10.8628 5.95615 10.2608C5.70678 9.65879 5.64154 8.99635 5.76866 8.35725C5.89579 7.71815 6.20957 7.1311 6.67034 6.67034C7.1311 6.20957 7.71815 5.89579 8.35725 5.76866C8.99635 5.64154 9.65879 5.70678 10.2608 5.95615C10.8628 6.20551 11.3774 6.62779 11.7394 7.16959C12.1014 7.7114 12.2946 8.34838 12.2946 9C12.2952 9.43281 12.2103 9.86147 12.0449 10.2614C11.8795 10.6614 11.6369 11.0248 11.3308 11.3308C11.0248 11.6369 10.6614 11.8795 10.2614 12.0449C9.86147 12.2103 9.43281 12.2952 9 12.2946ZM12.4304 6.33616C12.2783 6.33624 12.1296 6.29121 12.0031 6.20675C11.8766 6.1223 11.7779 6.00222 11.7197 5.86171C11.6614 5.7212 11.6461 5.56656 11.6758 5.41736C11.7054 5.26816 11.7786 5.1311 11.8861 5.02351C11.9937 4.91592 12.1307 4.84264 12.2799 4.81293C12.4291 4.78323 12.5837 4.79843 12.7242 4.85662C12.8648 4.91482 12.9849 5.01338 13.0694 5.13986C13.1539 5.26633 13.1991 5.41503 13.1991 5.56714C13.1995 5.66816 13.18 5.76826 13.1416 5.86171C13.1033 5.95516 13.0468 6.04012 12.9756 6.11172C12.9043 6.18332 12.8196 6.24014 12.7263 6.27893C12.6331 6.31772 12.5331 6.33772 12.4321 6.33777L12.4304 6.33616ZM16.0714 0H1.92857C1.41708 0 0.926543 0.203188 0.564865 0.564866C0.203188 0.926543 0 1.41708 0 1.92857L0 16.0714C0 16.5829 0.203188 17.0735 0.564865 17.4351C0.926543 17.7968 1.41708 18 1.92857 18H16.0714C16.5829 18 17.0735 17.7968 17.4351 17.4351C17.7968 17.0735 18 16.5829 18 16.0714V1.92857C18 1.41708 17.7968 0.926543 17.4351 0.564866C17.0735 0.203188 16.5829 0 16.0714 0ZM15.3836 11.6518C15.3317 12.6816 15.0967 13.594 14.345 14.3438C13.5932 15.0935 12.6816 15.3333 11.653 15.3824C10.5919 15.4422 7.41054 15.4422 6.34942 15.3824C5.31964 15.3305 4.4104 15.0951 3.65746 14.3438C2.90451 13.5924 2.66786 12.6796 2.61884 11.6518C2.55897 10.5903 2.55897 7.40853 2.61884 6.34821C2.67067 5.31844 2.9029 4.40598 3.65746 3.65625C4.41201 2.90652 5.32366 2.66946 6.34942 2.62045C7.41054 2.56058 10.5919 2.56058 11.653 2.62045C12.6828 2.67228 13.5948 2.90772 14.345 3.65906C15.0951 4.4104 15.3346 5.32326 15.3836 6.35304C15.4434 7.41054 15.4434 10.5895 15.3836 11.6518Z" fill="#27274D"/>
</svg>
